# xmcd
#
# Track frame offsets:
#	150
#	17901
#	39597
#	56196
#	75228
#	92614
#	108687
#	128575
#	146082
#	167479
#	187923
#	206966
#	215598
#	230582
#	260579
#
# Disc length: 3716 seconds
#
# Revision: 0
# Processed by: cddbd v1.5.2PL0 Copyright (c) Steve Scherf et al.
# Submitted via: EZCDAudioConverter 6.0.2.1
#
DISCID=d50e820f
DTITLE=Vargas Blues Band - Cambalache and Bronca
DYEAR=2017
DGENRE=Latin Blues Rock
TTITLE0=Cambalache and Bronca
TTITLE1=No Te Rindas
TTITLE2=Sucio Y Desprolijo
TTITLE3=Ana No Duerme
TTITLE4=Viento Dile A La Lluvia
TTITLE5=Escapando De Mi
TTITLE6=Plegaria Para Un Niño Dormido
TTITLE7=La Balsa
TTITLE8=Avellaneda Blues
TTITLE9=Espíritu Celeste
TTITLE10=A Estos Hombres Tristes
TTITLE11=Mister Jones (Retrato De Una Familia Americana)
TTITLE12=Post Crucifixión
TTITLE13=Todo El Día Me Pregunto
TTITLE14=Algo Flota En La Laguna
EXTD=
EXTT0=
EXTT1=
EXTT2=
EXTT3=
EXTT4=
EXTT5=
EXTT6=
EXTT7=
EXTT8=
EXTT9=
EXTT10=
EXTT11=
EXTT12=
EXTT13=
EXTT14=
PLAYORDER=
